<svg width="86" height="86" viewBox="0 0 86 86" fill="none" xmlns="http://www.w3.org/2000/svg">
<path d="M71.888 66.9996C75.7475 62.3559 78.4319 56.8509 79.714 50.9503C80.996 45.0497 80.8381 38.9272 79.2535 33.1006C77.6689 27.274 74.7043 21.9147 70.6105 17.4761C66.5166 13.0376 61.4139 9.65036 55.7341 7.60095C50.0543 5.55154 43.9644 4.90027 37.9797 5.70222C31.9949 6.50417 26.2913 8.73575 21.3514 12.2082C16.4115 15.6806 12.3806 20.2918 9.59973 25.6515C6.81883 31.0113 5.36973 36.962 5.37501 43.0002C5.37704 51.7781 8.47033 60.2749 14.1121 66.9996L14.0583 67.0453C14.2465 67.271 14.4615 67.4645 14.655 67.6876C14.8968 67.9644 15.1575 68.2251 15.4075 68.4938C16.16 69.3108 16.934 70.0956 17.7456 70.832C17.9928 71.0577 18.2481 71.2673 18.4981 71.4823C19.3581 72.2241 20.2423 72.9282 21.1587 73.5839C21.277 73.6646 21.3845 73.7694 21.5027 73.8527V73.8204C27.7971 78.2499 35.306 80.6271 43.0027 80.6271C50.6994 80.6271 58.2083 78.2499 64.5027 73.8204V73.8527C64.621 73.7694 64.7258 73.6646 64.8467 73.5839C65.7605 72.9255 66.6473 72.2241 67.5073 71.4823C67.7573 71.2673 68.0126 71.055 68.2598 70.832C69.0715 70.0929 69.8455 69.3108 70.598 68.4938C70.8479 68.2251 71.1059 67.9644 71.3504 67.6876C71.5413 67.4645 71.7589 67.271 71.9471 67.0426L71.888 66.9996ZM43 21.5002C45.3919 21.5002 47.7301 22.2095 49.7189 23.5384C51.7078 24.8672 53.2578 26.756 54.1732 28.9659C55.0885 31.1757 55.328 33.6074 54.8614 35.9533C54.3947 38.2993 53.2429 40.4542 51.5516 42.1455C49.8602 43.8369 47.7053 44.9887 45.3594 45.4553C43.0134 45.922 40.5818 45.6825 38.3719 44.7671C36.1621 43.8518 34.2733 42.3017 32.9444 40.3129C31.6156 38.3241 30.9063 35.9859 30.9063 33.594C30.9063 30.3865 32.1804 27.3104 34.4484 25.0424C36.7165 22.7744 39.7926 21.5002 43 21.5002ZM21.5188 66.9996C21.5654 63.4708 22.9995 60.1023 25.5107 57.6227C28.022 55.1432 31.4084 53.752 34.9375 53.7502H51.0625C54.5916 53.752 57.9781 55.1432 60.4893 57.6227C63.0005 60.1023 64.4346 63.4708 64.4812 66.9996C58.5871 72.311 50.9342 75.2504 43 75.2504C35.0658 75.2504 27.4129 72.311 21.5188 66.9996Z" fill="#B8C4BD"/>
</svg>
