<svg width="130" height="130" viewBox="0 0 114 114" fill="none" xmlns="http://www.w3.org/2000/svg">
<path d="M18.7625 11.875C25.5004 19.0475 28.8705 28.3575 28.8705 39.8145C28.8705 57 14.2476 70.1528 11.8014 79.5625C10.1698 85.8349 9.40263 93.3565 9.49763 102.125" stroke="#0CEF41" stroke-width="4" stroke-linecap="round"/>
<path d="M93.233 11.875C86.4927 19.0475 83.1226 28.3575 83.1226 39.8145C83.125 57 97.7455 70.1528 100.192 79.5625C101.823 85.8349 102.59 93.3565 102.495 102.125" stroke="#0CEF41" stroke-width="4" stroke-linecap="round"/>
<path d="M14.8295 73.2383C30.3264 83.047 44.3983 87.9514 57.0499 87.9514C69.6991 87.9514 83.0775 83.047 97.1826 73.2383" stroke="#0CEF41" stroke-width="4" stroke-linecap="round"/>
<path d="M57 73.625C58.5747 73.625 60.0849 72.9994 61.1984 71.8859C62.3119 70.7724 62.9375 69.2622 62.9375 67.6875C62.9375 66.1128 62.3119 64.6025 61.1984 63.4891C60.0849 62.3756 58.5747 61.75 57 61.75C55.4253 61.75 53.915 62.3756 52.8016 63.4891C51.6881 64.6025 51.0625 66.1128 51.0625 67.6875C51.0625 69.2622 51.6881 70.7724 52.8016 71.8859C53.915 72.9994 55.4253 73.625 57 73.625Z" fill="#0CEF41"/>
</svg>
